<svg width="38" height="13" viewBox="0 0 38 13" fill="none" xmlns="http://www.w3.org/2000/svg">
<path d="M10.0986 10V4.67822H9.43945V4.19922L11.2632 3.58398V10H10.0986ZM14.2717 7.58301C14.2717 5.9541 15.2795 4.60205 17.2951 3.52686L17.8488 4.43652C16.8176 4.9082 16.1086 5.47803 15.7219 6.146C16.0764 6.02002 16.4367 5.95703 16.8029 5.95703C18.3381 5.95703 19.1057 6.60156 19.1057 7.89062C19.1057 9.32617 18.281 10.0439 16.6315 10.0439C15.0583 10.0439 14.2717 9.22363 14.2717 7.58301ZM15.3923 7.55664C15.3923 8.59961 15.8186 9.12109 16.6711 9.12109C17.5295 9.12109 17.9587 8.71094 17.9587 7.89062C17.9587 7.2168 17.5603 6.87988 16.7634 6.87988C16.3122 6.87988 15.8815 6.9502 15.4714 7.09082C15.4187 7.20801 15.3923 7.36328 15.3923 7.55664ZM26.5289 7.23145V6.04492H27.4518V7.23145H28.6383V8.1543H27.4518V9.34082H26.5289V8.1543H25.3424V7.23145H26.5289Z" fill="white"/>
<rect x="0.5" y="0.5" width="37" height="12" stroke="white"/>
</svg>
